<svg xmlns="http://www.w3.org/2000/svg" width="800" height="442" viewBox="-70.4 -73.5 737.4 407">
  <rect x="-70.4" y="-73.5" width="737.4" height="407" fill="#111" />
  <g fill="none" stroke="#fff" stroke-width="2" stroke-linecap="round" stroke-linejoin="round">
    <path d="M 3.1,0 L 7.1,0 11.1,4 11.1,8 7.1,8 11.1,12 11.1,16 3.1,16 3.1,0 M 17.3,4 L 17.3,16 M 17.3,8 L 21.3,4 25.3,4 M 31.5,4 L 31.5,14 33.5,16 37.5,16 39.5,14 39.5,4 M 45.7,4 L 53.7,4 M 49.7,0 L 49.7,14 51.7,16 53.7,16 M 61.9,4 L 65.9,4 67.9,6 67.9,12 63.9,16 61.9,16 59.9,14 59.9,6 61.9,4 M 67.9,4 L 67.9,16 M 74.1,0 L 76.1,0 76.1,16 74.1,16 78.1,16 M 84.3,4 L 86.3,4 86.3,16 84.3,16 88.3,16 M 94.5,4 L 102.5,4 M 98.5,0 L 98.5,14 100.5,16 102.5,16 M 110.7,4 L 114.7,4 116.7,6 116.7,12 112.7,16 110.7,16 108.7,14 108.7,6 110.7,4 M 116.7,4 L 116.7,16 M 135.7,4 L 139.7,16 143.7,4 M 149.9,2 L 151.9,0 155.9,0 157.9,2 157.9,14 155.9,16 151.9,16 149.9,14 149.9,2 M 157.9,2 L 149.9,14 M 170.3,2 L 172.3,0 176.3,0 178.3,2 178.3,6 176.3,8 174.3,8 176.3,8 178.3,10 178.3,14 176.3,16 172.3,16 170.3,14 170.3,10 172.3,8 174.3,8 172.3,8 170.3,6 170.3,2 M 3.1,76 L 3.1,64 7.1,60 11.1,64 11.1,76 M 3.1,72 L 11.1,72 M 19.3,64 L 23.3,64 25.3,66 25.3,72 21.3,76 19.3,76 17.3,74 17.3,66 19.3,64 M 25.3,64 L 25.3,76 M 31.5,60 L 35.5,60 39.5,64 39.5,68 35.5,68 39.5,72 39.5,76 31.5,76 31.5,60 M 45.7,60 L 45.7,66 47.7,64 51.7,64 53.7,66 53.7,74 51.7,76 47.7,76 45.7,74 45.7,66 M 67.9,60 L 61.9,60 59.9,62 59.9,74 61.9,76 67.9,76 M 82.1,64 L 76.1,64 74.1,66 74.1,74 76.1,76 82.1,76 M 88.3,60 L 92.3,60 96.3,64 96.3,72 92.3,76 88.3,76 88.3,60 M 110.5,60 L 110.5,66 108.5,64 104.5,64 102.5,66 102.5,74 104.5,76 108.5,76 110.5,74 110.5,66 110.5,76 M 124.7,60 L 116.7,60 116.7,76 124.7,76 M 116.7,68 L 120.7,68 M 130.9,70 L 138.9,70 138.9,66 136.9,64 132.9,64 130.9,66 130.9,74 132.9,76 136.9,76 138.9,74 M 153.1,60 L 145.1,60 145.1,76 M 145.1,68 L 149.1,68 M 165.3,60 L 161.3,60 159.3,62 159.3,76 M 159.3,68 L 163.3,68 M 179.5,60 L 175.5,60 171.5,64 171.5,72 175.5,76 179.5,76 179.5,68 175.5,68 M 193.7,64 L 193.7,78 191.7,80 187.7,80 185.7,78 M 187.7,64 L 191.7,64 193.7,66 193.7,72 191.7,74 187.7,74 185.7,72 185.7,66 187.7,64 M 199.9,60 L 199.9,76 M 207.9,60 L 207.9,76 M 199.9,68 L 207.9,68 M 214.1,60 L 214.1,76 M 214.1,66 L 216.1,64 220.1,64 222.1,66 222.1,76 M 228.3,60 L 236.3,60 M 228.3,76 L 236.3,76 M 232.3,60 L 232.3,76 M 242.5,64 L 244.5,64 244.5,76 242.5,76 246.5,76 M 252.7,60 L 260.7,60 260.7,76 256.7,76 252.7,72 252.7,68 M 270.9,64 L 272.9,64 272.9,78 270.9,80 268.9,80 266.9,78 M 279.1,60 L 279.1,76 M 287.1,60 L 279.1,72 M 279.1,68 L 287.1,76 M 293.3,60 L 293.3,76 M 301.3,64 L 293.3,72 M 295.3,70 L 301.3,76 M 307.5,60 L 307.5,76 315.5,76 M 321.7,60 L 323.7,60 323.7,76 321.7,76 325.7,76 M 331.9,76 L 331.9,60 335.9,68 339.9,60 339.9,76 M 346.1,76 L 346.1,66 348.1,64 350.1,66 350.1,70 350.1,66 352.1,64 354.1,66 354.1,76 M 346.1,64 L 346.1,68 M 360.3,76 L 360.3,60 368.3,76 368.3,60 M 374.5,64 L 374.5,76 M 374.5,66 L 376.5,64 380.5,64 382.5,66 382.5,76 M 388.7,62 L 390.7,60 394.7,60 396.7,62 396.7,74 394.7,76 390.7,76 388.7,74 388.7,62 M 402.9,66 L 404.9,64 408.9,64 410.9,66 410.9,74 408.9,76 404.9,76 402.9,74 402.9,66 M 417.1,70 L 425.1,70 425.1,64 421.1,60 417.1,60 417.1,76 M 433.3,64 L 437.3,64 439.3,66 439.3,74 437.3,76 433.3,76 431.3,74 431.3,66 433.3,64 M 431.3,64 L 431.3,80 M 445.5,62 L 447.5,60 451.5,60 453.5,62 453.5,72 449.5,76 447.5,76 445.5,74 445.5,62 M 449.5,72 L 453.5,76 M 5.1,94 L 9.1,94 11.1,96 11.1,104 9.1,106 5.1,106 3.1,104 3.1,96 5.1,94 M 11.1,94 L 11.1,110 M 17.3,100 L 25.3,100 25.3,94 21.3,90 17.3,90 17.3,106 M 21.3,100 L 25.3,106 M 31.5,94 L 31.5,106 M 31.5,98 L 35.5,94 39.5,94 M 53.7,90 L 47.7,90 45.7,92 45.7,96 47.7,98 51.7,98 53.7,100 53.7,104 51.7,106 45.7,106 M 67.9,94 L 61.9,94 59.9,96 59.9,98 61.9,100 65.9,100 67.9,102 67.9,104 65.9,106 59.9,106 M 74.1,90 L 82.1,90 M 78.1,90 L 78.1,106 M 88.3,94 L 96.3,94 M 92.3,90 L 92.3,104 94.3,106 96.3,106 M 102.5,90 L 102.5,104 104.5,106 108.5,106 110.5,104 110.5,90 M 116.7,94 L 116.7,104 118.7,106 122.7,106 124.7,104 124.7,94 M 130.9,90 L 130.9,94 134.9,106 138.9,94 138.9,90 M 145.1,94 L 149.1,106 153.1,94 M 159.3,90 L 159.3,106 163.3,98 167.3,106 167.3,90 M 173.5,94 L 173.5,104 175.5,106 177.5,104 177.5,102 177.5,104 179.5,106 181.5,104 181.5,94 M 187.7,90 L 195.7,106 M 195.7,90 L 187.7,106 M 201.9,94 L 209.9,106 M 209.9,94 L 201.9,106 M 220.1,102 L 220.1,106 M 216.1,90 L 216.1,96 220.1,102 224.1,96 224.1,90 M 230.3,94 L 230.3,104 232.3,106 236.3,106 238.3,104 238.3,94 M 238.3,104 L 238.3,108 236.3,110 230.3,110 M 244.5,90 L 252.5,90 244.5,106 252.5,106 M 258.7,94 L 266.7,94 258.7,106 266.7,106 M 272.9,92 L 274.9,90 278.9,90 280.9,92 280.9,104 278.9,106 274.9,106 272.9,104 272.9,92 M 280.9,92 L 272.9,104 M 287.1,94 L 291.1,90 291.1,106 M 297.3,92 L 299.3,90 303.3,90 305.3,92 305.3,96 297.3,106 305.3,106 M 311.5,90 L 319.5,90 313.5,98 317.5,98 319.5,100 319.5,104 317.5,106 311.5,106 M 331.7,106 L 331.7,90 325.7,102 333.7,102 M 347.9,90 L 339.9,90 339.9,98 345.9,98 347.9,100 347.9,104 345.9,106 339.9,106 M 362.1,90 L 358.1,90 354.1,94 354.1,104 356.1,106 360.1,106 362.1,104 362.1,100 360.1,98 356.1,98 354.1,100 M 368.3,90 L 376.3,90 372.3,102 372.3,106 M 382.5,92 L 384.5,90 388.5,90 390.5,92 390.5,96 388.5,98 386.5,98 388.5,98 390.5,100 390.5,104 388.5,106 384.5,106 382.5,104 382.5,100 384.5,98 386.5,98 384.5,98 382.5,96 382.5,92 M 404.7,96 L 402.7,98 398.7,98 396.7,96 396.7,92 398.7,90 402.7,90 404.7,92 404.7,106 M 410.9,90 L 410.9,102 M 417.1,90 L 417.1,94 M 421.1,90 L 421.1,94 M 429.3,90 L 429.3,106 M 433.3,90 L 433.3,106 M 427.3,94 L 435.3,94 M 427.3,102 L 435.3,102 M 445.5,90 L 445.5,106 M 449.5,92 L 443.5,92 441.5,94 441.5,96 443.5,98 447.5,98 449.5,100 449.5,102 447.5,104 441.5,104 M 3.1,128 L 11.1,128 M 25.3,130 L 21.3,136 19.3,136 17.3,134 17.3,130 21.3,126 23.3,124 23.3,122 21.3,120 19.3,122 19.3,124 25.3,136 M 31.5,120 L 31.5,124 M 41.7,120 L 37.7,124 37.7,132 41.7,136 M 47.9,120 L 51.9,124 51.9,132 47.9,136 M 62.1,124 L 62.1,132 M 58.1,126 L 66.1,130 M 58.1,130 L 66.1,126 M 76.3,124 L 76.3,132 M 72.3,128 L 80.3,128 M 90.5,134 L 86.5,138 M 96.7,128 L 104.7,128 M 117.1,136 L 125.1,120 M 137.5,136 L 141.5,132 M 153.7,122 L 147.7,128 153.7,134 M 159.9,126 L 167.9,126 M 159.9,130 L 167.9,130 M 174.1,122 L 180.1,128 174.1,134 M 186.3,120 L 192.3,120 194.3,122 194.3,126 192.3,128 190.3,128 190.3,132 M 208.5,124 L 204.5,124 204.5,132 208.5,132 208.5,120 200.5,120 200.5,136 208.5,136 M 218.7,120 L 214.7,120 214.7,136 218.7,136 M 224.9,120 L 232.9,136 M 239.1,120 L 243.1,120 243.1,136 239.1,136 M 249.3,124 L 253.3,120 257.3,124 M 263.5,136 L 271.5,136 M 277.7,120 L 281.7,124 M 291.9,120 L 289.9,122 289.9,126 287.9,128 289.9,130 289.9,134 291.9,136 M 298.1,120 L 298.1,136 M 304.3,120 L 306.3,122 306.3,126 308.3,128 306.3,130 306.3,134 304.3,136 M 314.5,128 L 316.5,126 320.5,130 322.5,128 M 328.7,122 L 330.7,120 M 3.1,210 L 7.1,210 11.1,214 11.1,218 7.1,218 11.1,222 11.1,226 3.1,226 3.1,210 M 17.3,214 L 17.3,226 M 17.3,218 L 21.3,214 25.3,214 M 31.5,214 L 31.5,224 33.5,226 37.5,226 39.5,224 39.5,214 M 45.7,214 L 53.7,214 M 49.7,210 L 49.7,224 51.7,226 53.7,226 M 61.9,214 L 65.9,214 67.9,216 67.9,222 63.9,226 61.9,226 59.9,224 59.9,216 61.9,214 M 67.9,214 L 67.9,226 M 74.1,210 L 76.1,210 76.1,226 74.1,226 78.1,226 M 84.3,214 L 86.3,214 86.3,226 84.3,226 88.3,226 M 94.5,214 L 102.5,214 M 98.5,210 L 98.5,224 100.5,226 102.5,226 M 110.7,214 L 114.7,214 116.7,216 116.7,222 112.7,226 110.7,226 108.7,224 108.7,216 110.7,214 M 116.7,214 L 116.7,226 M 135.7,214 L 137.7,214 137.7,226 135.7,226 139.7,226 M 153.9,214 L 147.9,214 145.9,216 145.9,218 147.9,220 151.9,220 153.9,222 153.9,224 151.9,226 145.9,226 M 174.9,214 L 178.9,214 180.9,216 180.9,222 176.9,226 174.9,226 172.9,224 172.9,216 174.9,214 M 180.9,214 L 180.9,226 M 187.1,214 L 187.1,226 M 187.1,216 L 189.1,214 193.1,214 195.1,216 195.1,226 M 214.1,220 L 222.1,220 222.1,216 220.1,214 216.1,214 214.1,216 214.1,224 216.1,226 220.1,226 222.1,224 M 228.3,214 L 236.3,226 M 236.3,214 L 228.3,226 M 244.5,214 L 248.5,214 250.5,216 250.5,224 248.5,226 244.5,226 242.5,224 242.5,216 244.5,214 M 242.5,214 L 242.5,230 M 256.7,220 L 264.7,220 264.7,216 262.7,214 258.7,214 256.7,216 256.7,224 258.7,226 262.7,226 264.7,224 M 270.9,214 L 270.9,226 M 270.9,218 L 274.9,214 278.9,214 M 285.1,214 L 287.1,214 287.1,226 285.1,226 289.1,226 M 295.3,226 L 295.3,216 297.3,214 299.3,216 299.3,220 299.3,216 301.3,214 303.3,216 303.3,226 M 295.3,214 L 295.3,218 M 309.5,220 L 317.5,220 317.5,216 315.5,214 311.5,214 309.5,216 309.5,224 311.5,226 315.5,226 317.5,224 M 323.7,214 L 323.7,226 M 323.7,216 L 325.7,214 329.7,214 331.7,216 331.7,226 M 337.9,214 L 345.9,214 M 341.9,210 L 341.9,224 343.9,226 345.9,226 M 354.1,214 L 358.1,214 360.1,216 360.1,222 356.1,226 354.1,226 352.1,224 352.1,216 354.1,214 M 360.1,214 L 360.1,226 M 366.3,210 L 368.3,210 368.3,226 366.3,226 370.3,226 M 395.3,210 L 391.3,210 389.3,212 389.3,226 M 389.3,218 L 393.3,218 M 401.5,216 L 403.5,214 407.5,214 409.5,216 409.5,224 407.5,226 403.5,226 401.5,224 401.5,216 M 415.7,214 L 415.7,226 M 415.7,216 L 417.7,214 421.7,214 423.7,216 423.7,226 M 429.9,214 L 437.9,214 M 433.9,210 L 433.9,224 435.9,226 437.9,226 M 458.9,214 L 462.9,214 464.9,216 464.9,222 460.9,226 458.9,226 456.9,224 456.9,216 458.9,214 M 464.9,214 L 464.9,226 M 471.1,214 L 471.1,226 M 471.1,216 L 473.1,214 477.1,214 479.1,216 479.1,226 M 493.3,210 L 493.3,216 491.3,214 487.3,214 485.3,216 485.3,224 487.3,226 491.3,226 493.3,224 493.3,216 493.3,226 M 512.3,220 L 520.3,220 520.3,216 518.3,214 514.3,214 512.3,216 512.3,224 514.3,226 518.3,226 520.3,224 M 534.5,210 L 534.5,216 532.5,214 528.5,214 526.5,216 526.5,224 528.5,226 532.5,226 534.5,224 534.5,216 534.5,226 M 540.7,214 L 542.7,214 542.7,226 540.7,226 544.7,226 M 550.9,214 L 558.9,214 M 554.9,210 L 554.9,224 556.9,226 558.9,226 M 565.1,216 L 567.1,214 571.1,214 573.1,216 573.1,224 571.1,226 567.1,226 565.1,224 565.1,216 M 579.3,214 L 579.3,226 M 579.3,218 L 583.3,214 587.3,214 M 11.1,240 L 5.1,240 3.1,242 3.1,254 5.1,256 11.1,256 M 17.3,244 L 17.3,256 M 17.3,248 L 21.3,244 25.3,244 M 31.5,250 L 39.5,250 39.5,246 37.5,244 33.5,244 31.5,246 31.5,254 33.5,256 37.5,256 39.5,254 M 47.7,244 L 51.7,244 53.7,246 53.7,252 49.7,256 47.7,256 45.7,254 45.7,246 47.7,244 M 53.7,244 L 53.7,256 M 59.9,244 L 67.9,244 M 63.9,240 L 63.9,254 65.9,256 67.9,256 M 74.1,250 L 82.1,250 82.1,246 80.1,244 76.1,244 74.1,246 74.1,254 76.1,256 80.1,256 82.1,254 M 103.1,244 L 107.1,244 109.1,246 109.1,252 105.1,256 103.1,256 101.1,254 101.1,246 103.1,244 M 109.1,244 L 109.1,256 M 115.3,244 L 115.3,256 M 115.3,246 L 117.3,244 121.3,244 123.3,246 123.3,256 M 137.5,240 L 137.5,246 135.5,244 131.5,244 129.5,246 129.5,254 131.5,256 135.5,256 137.5,254 137.5,246 137.5,256 M 164.5,240 L 164.5,246 162.5,244 158.5,244 156.5,246 156.5,254 158.5,256 162.5,256 164.5,254 164.5,246 164.5,256 M 170.7,246 L 172.7,244 176.7,244 178.7,246 178.7,254 176.7,256 172.7,256 170.7,254 170.7,246 M 184.9,244 L 184.9,254 186.9,256 188.9,254 188.9,252 188.9,254 190.9,256 192.9,254 192.9,244 M 199.1,244 L 199.1,256 M 199.1,246 L 201.1,244 205.1,244 207.1,246 207.1,256 M 213.3,240 L 215.3,240 215.3,256 213.3,256 217.3,256 M 223.5,246 L 225.5,244 229.5,244 231.5,246 231.5,254 229.5,256 225.5,256 223.5,254 223.5,246 M 239.7,244 L 243.7,244 245.7,246 245.7,252 241.7,256 239.7,256 237.7,254 237.7,246 239.7,244 M 245.7,244 L 245.7,256 M 259.9,240 L 259.9,246 257.9,244 253.9,244 251.9,246 251.9,254 253.9,256 257.9,256 259.9,254 259.9,246 259.9,256 M 278.9,244 L 278.9,254 280.9,256 284.9,256 286.9,254 286.9,244 M 286.9,254 L 286.9,258 284.9,260 278.9,260 M 293.1,246 L 295.1,244 299.1,244 301.1,246 301.1,254 299.1,256 295.1,256 293.1,254 293.1,246 M 307.3,244 L 307.3,254 309.3,256 313.3,256 315.3,254 315.3,244 M 321.5,244 L 321.5,256 M 321.5,248 L 325.5,244 329.5,244 M 348.5,246 L 350.5,244 354.5,244 356.5,246 356.5,254 354.5,256 350.5,256 348.5,254 348.5,246 M 362.7,244 L 362.7,254 364.7,256 366.7,254 366.7,252 366.7,254 368.7,256 370.7,254 370.7,244 M 376.9,244 L 376.9,256 M 376.9,246 L 378.9,244 382.9,244 384.9,246 384.9,256 M 409.9,240 L 405.9,240 403.9,242 403.9,256 M 403.9,248 L 407.9,248 M 416.1,246 L 418.1,244 422.1,244 424.1,246 424.1,254 422.1,256 418.1,256 416.1,254 416.1,246 M 430.3,244 L 430.3,256 M 430.3,246 L 432.3,244 436.3,244 438.3,246 438.3,256 M 444.5,244 L 452.5,244 M 448.5,240 L 448.5,254 450.5,256 452.5,256" />
    <circle cx="86.3" cy="0" r="1.5" fill="#fff" stroke="none" />
    <circle cx="164.1" cy="16" r="1.5" fill="#fff" stroke="none" />
    <circle cx="244.5" cy="60" r="1.5" fill="#fff" stroke="none" />
    <circle cx="272.9" cy="60" r="1.5" fill="#fff" stroke="none" />
    <circle cx="410.9" cy="106" r="1.5" fill="#fff" stroke="none" />
    <circle cx="7.1" cy="124" r="1.5" fill="#fff" stroke="none" />
    <circle cx="7.1" cy="132" r="1.5" fill="#fff" stroke="none" />
    <circle cx="110.9" cy="136" r="1.5" fill="#fff" stroke="none" />
    <circle cx="131.3" cy="124" r="1.5" fill="#fff" stroke="none" />
    <circle cx="131.3" cy="132" r="1.5" fill="#fff" stroke="none" />
    <circle cx="141.5" cy="124" r="1.5" fill="#fff" stroke="none" />
    <circle cx="190.3" cy="136" r="1.5" fill="#fff" stroke="none" />
    <circle cx="86.3" cy="210" r="1.5" fill="#fff" stroke="none" />
    <circle cx="137.7" cy="210" r="1.5" fill="#fff" stroke="none" />
    <circle cx="287.1" cy="210" r="1.5" fill="#fff" stroke="none" />
    <circle cx="542.7" cy="210" r="1.5" fill="#fff" stroke="none" />
    <circle cx="593.5" cy="226" r="1.5" fill="#fff" stroke="none" />
    <circle cx="458.7" cy="256" r="1.5" fill="#fff" stroke="none" />
  </g>
</svg>
