<svg xmlns="http://www.w3.org/2000/svg" width="800" height="425" viewBox="-73.5 -73.5 767 407">
  <rect x="-73.5" y="-73.5" width="767" height="407" fill="#111" />
  <g fill="none" stroke="#fff" stroke-width="2" stroke-linecap="round" stroke-linejoin="round">
    <path d="M 0,0 L 4,0 8,4 8,8 4,8 8,12 8,16 0,16 0,0 M 14,4 L 14,16 M 14,8 L 18,4 22,4 M 28,4 L 28,14 30,16 34,16 36,14 36,4 M 42,4 L 50,4 M 46,0 L 46,14 48,16 50,16 M 58,4 L 62,4 64,6 64,12 60,16 58,16 56,14 56,6 58,4 M 64,4 L 64,16 M 72,0 L 74,0 74,16 72,16 76,16 M 86,4 L 88,4 88,16 86,16 90,16 M 98,4 L 106,4 M 102,0 L 102,14 104,16 106,16 M 114,4 L 118,4 120,6 120,12 116,16 114,16 112,14 112,6 114,4 M 120,4 L 120,16 M 140,4 L 144,16 148,4 M 154,2 L 156,0 160,0 162,2 162,14 160,16 156,16 154,14 154,2 M 162,2 L 154,14 M 182,2 L 184,0 188,0 190,2 190,6 188,8 186,8 188,8 190,10 190,14 188,16 184,16 182,14 182,10 184,8 186,8 184,8 182,6 182,2 M 0,76 L 0,64 4,60 8,64 8,76 M 0,72 L 8,72 M 16,64 L 20,64 22,66 22,72 18,76 16,76 14,74 14,66 16,64 M 22,64 L 22,76 M 28,60 L 32,60 36,64 36,68 32,68 36,72 36,76 28,76 28,60 M 42,60 L 42,66 44,64 48,64 50,66 50,74 48,76 44,76 42,74 42,66 M 64,60 L 58,60 56,62 56,74 58,76 64,76 M 78,64 L 72,64 70,66 70,74 72,76 78,76 M 84,60 L 88,60 92,64 92,72 88,76 84,76 84,60 M 106,60 L 106,66 104,64 100,64 98,66 98,74 100,76 104,76 106,74 106,66 106,76 M 120,60 L 112,60 112,76 120,76 M 112,68 L 116,68 M 126,70 L 134,70 134,66 132,64 128,64 126,66 126,74 128,76 132,76 134,74 M 148,60 L 140,60 140,76 M 140,68 L 144,68 M 162,60 L 158,60 156,62 156,76 M 156,68 L 160,68 M 176,60 L 172,60 168,64 168,72 172,76 176,76 176,68 172,68 M 190,64 L 190,78 188,80 184,80 182,78 M 184,64 L 188,64 190,66 190,72 188,74 184,74 182,72 182,66 184,64 M 196,60 L 196,76 M 204,60 L 204,76 M 196,68 L 204,68 M 210,60 L 210,76 M 210,66 L 212,64 216,64 218,66 218,76 M 224,60 L 232,60 M 224,76 L 232,76 M 228,60 L 228,76 M 240,64 L 242,64 242,76 240,76 244,76 M 252,60 L 260,60 260,76 256,76 252,72 252,68 M 270,64 L 272,64 272,78 270,80 268,80 266,78 M 280,60 L 280,76 M 288,60 L 280,72 M 280,68 L 288,76 M 294,60 L 294,76 M 302,64 L 294,72 M 296,70 L 302,76 M 308,60 L 308,76 316,76 M 324,60 L 326,60 326,76 324,76 328,76 M 336,76 L 336,60 340,68 344,60 344,76 M 350,76 L 350,66 352,64 354,66 354,70 354,66 356,64 358,66 358,76 M 350,64 L 350,68 M 364,76 L 364,60 372,76 372,60 M 378,64 L 378,76 M 378,66 L 380,64 384,64 386,66 386,76 M 392,62 L 394,60 398,60 400,62 400,74 398,76 394,76 392,74 392,62 M 406,66 L 408,64 412,64 414,66 414,74 412,76 408,76 406,74 406,66 M 420,70 L 428,70 428,64 424,60 420,60 420,76 M 436,64 L 440,64 442,66 442,74 440,76 436,76 434,74 434,66 436,64 M 434,64 L 434,80 M 448,62 L 450,60 454,60 456,62 456,72 452,76 450,76 448,74 448,62 M 452,72 L 456,76 M 2,94 L 6,94 8,96 8,104 6,106 2,106 0,104 0,96 2,94 M 8,94 L 8,110 M 14,100 L 22,100 22,94 18,90 14,90 14,106 M 18,100 L 22,106 M 28,94 L 28,106 M 28,98 L 32,94 36,94 M 50,90 L 44,90 42,92 42,96 44,98 48,98 50,100 50,104 48,106 42,106 M 64,94 L 58,94 56,96 56,98 58,100 62,100 64,102 64,104 62,106 56,106 M 70,90 L 78,90 M 74,90 L 74,106 M 84,94 L 92,94 M 88,90 L 88,104 90,106 92,106 M 98,90 L 98,104 100,106 104,106 106,104 106,90 M 112,94 L 112,104 114,106 118,106 120,104 120,94 M 126,90 L 126,94 130,106 134,94 134,90 M 140,94 L 144,106 148,94 M 154,90 L 154,106 158,98 162,106 162,90 M 168,94 L 168,104 170,106 172,104 172,102 172,104 174,106 176,104 176,94 M 182,90 L 190,106 M 190,90 L 182,106 M 196,94 L 204,106 M 204,94 L 196,106 M 214,102 L 214,106 M 210,90 L 210,96 214,102 218,96 218,90 M 224,94 L 224,104 226,106 230,106 232,104 232,94 M 232,104 L 232,108 230,110 224,110 M 238,90 L 246,90 238,106 246,106 M 252,94 L 260,94 252,106 260,106 M 266,92 L 268,90 272,90 274,92 274,104 272,106 268,106 266,104 266,92 M 274,92 L 266,104 M 282,94 L 286,90 286,106 M 294,92 L 296,90 300,90 302,92 302,96 294,106 302,106 M 308,90 L 316,90 310,98 314,98 316,100 316,104 314,106 308,106 M 328,106 L 328,90 322,102 330,102 M 344,90 L 336,90 336,98 342,98 344,100 344,104 342,106 336,106 M 358,90 L 354,90 350,94 350,104 352,106 356,106 358,104 358,100 356,98 352,98 350,100 M 364,90 L 372,90 368,102 368,106 M 378,92 L 380,90 384,90 386,92 386,96 384,98 382,98 384,98 386,100 386,104 384,106 380,106 378,104 378,100 380,98 382,98 380,98 378,96 378,92 M 400,96 L 398,98 394,98 392,96 392,92 394,90 398,90 400,92 400,106 M 410,90 L 410,102 M 422,90 L 422,94 M 426,90 L 426,94 M 436,90 L 436,106 M 440,90 L 440,106 M 434,94 L 442,94 M 434,102 L 442,102 M 452,90 L 452,106 M 456,92 L 450,92 448,94 448,96 450,98 454,98 456,100 456,102 454,104 448,104 M 0,128 L 8,128 M 22,130 L 18,136 16,136 14,134 14,130 18,126 20,124 20,122 18,120 16,122 16,124 22,136 M 32,120 L 32,124 M 48,120 L 44,124 44,132 48,136 M 58,120 L 62,124 62,132 58,136 M 74,124 L 74,132 M 70,126 L 78,130 M 70,130 L 78,126 M 88,124 L 88,132 M 84,128 L 92,128 M 102,134 L 98,138 M 112,128 L 120,128 M 140,136 L 148,120 M 168,136 L 172,132 M 188,122 L 182,128 188,134 M 196,126 L 204,126 M 196,130 L 204,130 M 212,122 L 218,128 212,134 M 224,120 L 230,120 232,122 232,126 230,128 228,128 228,132 M 246,124 L 242,124 242,132 246,132 246,120 238,120 238,136 246,136 M 260,120 L 256,120 256,136 260,136 M 266,120 L 274,136 M 280,120 L 284,120 284,136 280,136 M 294,124 L 298,120 302,124 M 308,136 L 316,136 M 322,120 L 326,124 M 342,120 L 340,122 340,126 338,128 340,130 340,134 342,136 M 354,120 L 354,136 M 366,120 L 368,122 368,126 370,128 368,130 368,134 366,136 M 378,128 L 380,126 384,130 386,128 M 396,122 L 398,120 M 0,210 L 4,210 8,214 8,218 4,218 8,222 8,226 0,226 0,210 M 14,214 L 14,226 M 14,218 L 18,214 22,214 M 28,214 L 28,224 30,226 34,226 36,224 36,214 M 42,214 L 50,214 M 46,210 L 46,224 48,226 50,226 M 58,214 L 62,214 64,216 64,222 60,226 58,226 56,224 56,216 58,214 M 64,214 L 64,226 M 72,210 L 74,210 74,226 72,226 76,226 M 86,214 L 88,214 88,226 86,226 90,226 M 98,214 L 106,214 M 102,210 L 102,224 104,226 106,226 M 114,214 L 118,214 120,216 120,222 116,226 114,226 112,224 112,216 114,214 M 120,214 L 120,226 M 142,214 L 144,214 144,226 142,226 146,226 M 162,214 L 156,214 154,216 154,218 156,220 160,220 162,222 162,224 160,226 154,226 M 184,214 L 188,214 190,216 190,222 186,226 184,226 182,224 182,216 184,214 M 190,214 L 190,226 M 196,214 L 196,226 M 196,216 L 198,214 202,214 204,216 204,226 M 224,220 L 232,220 232,216 230,214 226,214 224,216 224,224 226,226 230,226 232,224 M 238,214 L 246,226 M 246,214 L 238,226 M 254,214 L 258,214 260,216 260,224 258,226 254,226 252,224 252,216 254,214 M 252,214 L 252,230 M 266,220 L 274,220 274,216 272,214 268,214 266,216 266,224 268,226 272,226 274,224 M 280,214 L 280,226 M 280,218 L 284,214 288,214 M 296,214 L 298,214 298,226 296,226 300,226 M 308,226 L 308,216 310,214 312,216 312,220 312,216 314,214 316,216 316,226 M 308,214 L 308,218 M 322,220 L 330,220 330,216 328,214 324,214 322,216 322,224 324,226 328,226 330,224 M 336,214 L 336,226 M 336,216 L 338,214 342,214 344,216 344,226 M 350,214 L 358,214 M 354,210 L 354,224 356,226 358,226 M 366,214 L 370,214 372,216 372,222 368,226 366,226 364,224 364,216 366,214 M 372,214 L 372,226 M 380,210 L 382,210 382,226 380,226 384,226 M 414,210 L 410,210 408,212 408,226 M 408,218 L 412,218 M 420,216 L 422,214 426,214 428,216 428,224 426,226 422,226 420,224 420,216 M 434,214 L 434,226 M 434,216 L 436,214 440,214 442,216 442,226 M 448,214 L 456,214 M 452,210 L 452,224 454,226 456,226 M 478,214 L 482,214 484,216 484,222 480,226 478,226 476,224 476,216 478,214 M 484,214 L 484,226 M 490,214 L 490,226 M 490,216 L 492,214 496,214 498,216 498,226 M 512,210 L 512,216 510,214 506,214 504,216 504,224 506,226 510,226 512,224 512,216 512,226 M 532,220 L 540,220 540,216 538,214 534,214 532,216 532,224 534,226 538,226 540,224 M 554,210 L 554,216 552,214 548,214 546,216 546,224 548,226 552,226 554,224 554,216 554,226 M 562,214 L 564,214 564,226 562,226 566,226 M 574,214 L 582,214 M 578,210 L 578,224 580,226 582,226 M 588,216 L 590,214 594,214 596,216 596,224 594,226 590,226 588,224 588,216 M 602,214 L 602,226 M 602,218 L 606,214 610,214 M 8,240 L 2,240 0,242 0,254 2,256 8,256 M 14,244 L 14,256 M 14,248 L 18,244 22,244 M 28,250 L 36,250 36,246 34,244 30,244 28,246 28,254 30,256 34,256 36,254 M 44,244 L 48,244 50,246 50,252 46,256 44,256 42,254 42,246 44,244 M 50,244 L 50,256 M 56,244 L 64,244 M 60,240 L 60,254 62,256 64,256 M 70,250 L 78,250 78,246 76,244 72,244 70,246 70,254 72,256 76,256 78,254 M 100,244 L 104,244 106,246 106,252 102,256 100,256 98,254 98,246 100,244 M 106,244 L 106,256 M 112,244 L 112,256 M 112,246 L 114,244 118,244 120,246 120,256 M 134,240 L 134,246 132,244 128,244 126,246 126,254 128,256 132,256 134,254 134,246 134,256 M 162,240 L 162,246 160,244 156,244 154,246 154,254 156,256 160,256 162,254 162,246 162,256 M 168,246 L 170,244 174,244 176,246 176,254 174,256 170,256 168,254 168,246 M 182,244 L 182,254 184,256 186,254 186,252 186,254 188,256 190,254 190,244 M 196,244 L 196,256 M 196,246 L 198,244 202,244 204,246 204,256 M 212,240 L 214,240 214,256 212,256 216,256 M 224,246 L 226,244 230,244 232,246 232,254 230,256 226,256 224,254 224,246 M 240,244 L 244,244 246,246 246,252 242,256 240,256 238,254 238,246 240,244 M 246,244 L 246,256 M 260,240 L 260,246 258,244 254,244 252,246 252,254 254,256 258,256 260,254 260,246 260,256 M 280,244 L 280,254 282,256 286,256 288,254 288,244 M 288,254 L 288,258 286,260 280,260 M 294,246 L 296,244 300,244 302,246 302,254 300,256 296,256 294,254 294,246 M 308,244 L 308,254 310,256 314,256 316,254 316,244 M 322,244 L 322,256 M 322,248 L 326,244 330,244 M 350,246 L 352,244 356,244 358,246 358,254 356,256 352,256 350,254 350,246 M 364,244 L 364,254 366,256 368,254 368,252 368,254 370,256 372,254 372,244 M 378,244 L 378,256 M 378,246 L 380,244 384,244 386,246 386,256 M 414,240 L 410,240 408,242 408,256 M 408,248 L 412,248 M 420,246 L 422,244 426,244 428,246 428,254 426,256 422,256 420,254 420,246 M 434,244 L 434,256 M 434,246 L 436,244 440,244 442,246 442,256 M 448,244 L 456,244 M 452,240 L 452,254 454,256 456,256" />
    <circle cx="88" cy="0" r="1.5" fill="#fff" stroke="none" />
    <circle cx="172" cy="16" r="1.5" fill="#fff" stroke="none" />
    <circle cx="242" cy="60" r="1.5" fill="#fff" stroke="none" />
    <circle cx="272" cy="60" r="1.5" fill="#fff" stroke="none" />
    <circle cx="410" cy="106" r="1.5" fill="#fff" stroke="none" />
    <circle cx="4" cy="124" r="1.5" fill="#fff" stroke="none" />
    <circle cx="4" cy="132" r="1.5" fill="#fff" stroke="none" />
    <circle cx="130" cy="136" r="1.5" fill="#fff" stroke="none" />
    <circle cx="158" cy="124" r="1.5" fill="#fff" stroke="none" />
    <circle cx="158" cy="132" r="1.5" fill="#fff" stroke="none" />
    <circle cx="172" cy="124" r="1.5" fill="#fff" stroke="none" />
    <circle cx="228" cy="136" r="1.5" fill="#fff" stroke="none" />
    <circle cx="88" cy="210" r="1.5" fill="#fff" stroke="none" />
    <circle cx="144" cy="210" r="1.5" fill="#fff" stroke="none" />
    <circle cx="298" cy="210" r="1.5" fill="#fff" stroke="none" />
    <circle cx="564" cy="210" r="1.5" fill="#fff" stroke="none" />
    <circle cx="620" cy="226" r="1.5" fill="#fff" stroke="none" />
    <circle cx="466" cy="256" r="1.5" fill="#fff" stroke="none" />
  </g>
</svg>
